<svg width="32" height="32" viewBox="0 0 32 32" fill="none" xmlns="http://www.w3.org/2000/svg">
<path d="M2.28571 0.6H12.5714C13.4972 0.6 14.2571 1.35994 14.2571 2.28571V12.5714C14.2571 13.4972 13.4972 14.2571 12.5714 14.2571H2.28571C1.35994 14.2571 0.6 13.4972 0.6 12.5714V2.28571C0.6 1.35994 1.35994 0.6 2.28571 0.6ZM19.4286 0.6H29.7143C30.6401 0.6 31.4 1.35994 31.4 2.28571V12.5714C31.4 13.4972 30.6401 14.2571 29.7143 14.2571H19.4286C18.5028 14.2571 17.7429 13.4972 17.7429 12.5714V2.28571C17.7429 1.35994 18.5028 0.6 19.4286 0.6ZM2.28571 17.7429H12.5714C13.4972 17.7429 14.2571 18.5028 14.2571 19.4286V29.7143C14.2571 30.6401 13.4972 31.4 12.5714 31.4H2.28571C1.35994 31.4 0.6 30.6401 0.6 29.7143V19.4286C0.6 18.5028 1.35994 17.7429 2.28571 17.7429ZM19.4286 17.7429H29.7143C30.6401 17.7429 31.4 18.5028 31.4 19.4286V29.7143C31.4 30.6401 30.6401 31.4 29.7143 31.4H19.4286C18.5028 31.4 17.7429 30.6401 17.7429 29.7143V19.4286C17.7429 18.5028 18.5028 17.7429 19.4286 17.7429Z" stroke="white" stroke-width="1.2"/>
</svg>
