<svg width="37" height="34" viewBox="0 0 37 34" fill="none" xmlns="http://www.w3.org/2000/svg">
<path d="M17.8299 26V11.8182H20.0089V26H17.8299ZM18.9379 9.45455C18.5132 9.45455 18.1469 9.3099 17.8392 9.0206C17.5376 8.7313 17.3868 8.38352 17.3868 7.97727C17.3868 7.57102 17.5376 7.22325 17.8392 6.93395C18.1469 6.64465 18.5132 6.5 18.9379 6.5C19.3626 6.5 19.7258 6.64465 20.0274 6.93395C20.3351 7.22325 20.489 7.57102 20.489 7.97727C20.489 8.38352 20.3351 8.7313 20.0274 9.0206C19.7258 9.3099 19.3626 9.45455 18.9379 9.45455Z" fill="white"/>
<path d="M1 15.5712C1 22.5207 5.63297 25.8299 5.63297 25.8299L3.09587 33L12.5824 29.6907C12.5824 29.6907 14.8989 30.6835 18.87 30.6835C26.8123 30.6835 36.1885 25.8299 36.1885 15.5712C36.1885 8.29081 30.0112 0.679491 18.5391 1.01042C7.06699 1.34134 1 8.62173 1 15.5712Z" stroke="white" stroke-width="1.5" stroke-linejoin="round"/>
</svg>
