<svg width="167" height="225" viewBox="0 0 167 225" fill="none" xmlns="http://www.w3.org/2000/svg">
<path d="M34 32C34 29.7909 32.2091 28 30 28C27.7909 28 26 29.7909 26 32L34 32ZM27.1716 192.828C28.7337 194.391 31.2663 194.391 32.8284 192.828L58.2843 167.373C59.8464 165.81 59.8464 163.278 58.2843 161.716C56.7222 160.154 54.1895 160.154 52.6274 161.716L30 184.343L7.37259 161.716C5.81049 160.154 3.27783 160.154 1.71573 161.716C0.153637 163.278 0.153637 165.81 1.71573 167.373L27.1716 192.828ZM26 32L26 190L34 190L34 32L26 32Z" fill="white"/>
<path d="M95.5007 102H86.2678L112.972 29.2727H122.063L148.768 102H139.535L117.802 40.7784H117.234L95.5007 102ZM98.9098 73.5909H136.126V81.4034H98.9098V73.5909Z" fill="white"/>
<path d="M92.642 195V188.608L131.847 130.085H92.2159V122.273H142.358V128.665L103.153 187.188H142.784V195H92.642Z" fill="white"/>
</svg>
