<svg width="32" height="27" viewBox="0 0 32 27" fill="none" xmlns="http://www.w3.org/2000/svg">
<path d="M27.9456 8.11598C27.9456 7.84242 27.9402 7.57195 27.9278 7.30333C29.1308 6.43199 30.1745 5.34125 31 4.09311C29.8789 4.58346 28.686 4.90072 27.4643 5.03343C28.7359 4.27279 29.711 3.05628 30.1718 1.59641C28.9812 2.29831 27.6643 2.80011 26.2641 3.06158C25.1421 1.82059 23.5411 1.03016 21.7711 1.00079C18.3718 0.946159 15.6162 3.73858 15.6162 7.23702C15.6162 7.7343 15.6697 8.21655 15.776 8.68223C10.6571 8.36202 6.12113 5.77191 3.08693 1.8673C2.5575 2.80279 2.25376 3.89609 2.25376 5.06774C2.25376 7.28378 3.3404 9.25337 4.99146 10.4156C3.9807 10.3712 3.03386 10.0736 2.20338 9.58567V9.66705C2.20338 12.7643 4.32566 15.3593 7.14168 15.9647C6.62542 16.1075 6.08091 16.1817 5.52089 16.1791C5.1318 16.1771 4.74396 16.1358 4.36365 16.0559C5.14614 18.594 7.42029 20.4483 10.1126 20.5101C8.00549 22.2085 5.35113 23.223 2.46929 23.2159C1.9724 23.2159 1.48138 23.1835 1 23.1247C3.72495 24.9417 6.95954 26 10.4367 26C21.7556 26.0026 27.9456 16.4255 27.9456 8.11598Z" stroke="white" stroke-width="1.1" stroke-linejoin="round"/>
</svg>
